<svg xmlns="http://www.w3.org/2000/svg" xmlns:xlink="http://www.w3.org/1999/xlink" preserveAspectRatio="xMidYMid" width="64" height="63" viewBox="0 0 64 63">
  <defs>
    <style>

      .cls-3 {
        fill: #000000;
      }
    </style>
  </defs>
  <g id="group-2svg">
    <path d="M45.643,23.321 C45.643,25.332 44.014,26.962 42.003,26.962 C39.993,26.962 38.363,25.332 38.363,23.321 C38.363,21.310 39.993,19.681 42.003,19.681 C44.014,19.681 45.643,21.310 45.643,23.321 Z" id="path-1" class="cls-3" fill-rule="evenodd"/>
    <path d="M24.714,23.321 C24.714,25.332 23.084,26.962 21.074,26.962 C19.064,26.962 17.434,25.332 17.434,23.321 C17.434,21.310 19.064,19.681 21.074,19.681 C23.084,19.681 24.714,21.310 24.714,23.321 Z" id="path-2" class="cls-3" fill-rule="evenodd"/>
    <path d="M34.369,50.292 C34.369,50.292 29.314,50.292 29.314,50.292 C22.912,50.292 17.703,45.146 17.703,38.819 C17.703,37.990 18.375,37.319 19.203,37.319 C20.031,37.319 20.703,37.990 20.703,38.819 C20.703,43.570 24.485,47.292 29.314,47.292 C29.314,47.292 34.369,47.292 34.369,47.292 C39.198,47.292 42.980,43.632 42.980,38.959 C42.980,38.130 43.652,37.459 44.480,37.459 C45.309,37.459 45.980,38.130 45.980,38.959 C45.980,45.314 40.880,50.292 34.369,50.292 Z" id="path-3" class="cls-3" fill-rule="evenodd"/>
    <path d="M31.586,63.206 C14.167,63.206 -0.004,49.031 -0.004,31.608 C-0.004,14.186 14.167,0.011 31.586,0.011 C49.004,0.011 63.175,14.186 63.175,31.608 C63.175,49.031 49.004,63.206 31.586,63.206 ZM31.586,3.012 C15.821,3.012 2.996,15.840 2.996,31.608 C2.996,47.377 15.821,60.205 31.586,60.205 C47.350,60.205 60.175,47.377 60.175,31.608 C60.175,15.840 47.350,3.012 31.586,3.012 Z" id="path-4" class="cls-3" fill-rule="evenodd"/>
  </g>
</svg>
