<svg xmlns="http://www.w3.org/2000/svg" xmlns:xlink="http://www.w3.org/1999/xlink" preserveAspectRatio="xMidYMid" width="63" height="63" viewBox="0 0 63 63">
  <defs>
    <style>

      .cls-3 {
        fill: #000000;
      }
    </style>
  </defs>
  <g id="group-44svg">
    <path d="M24.353,24.825 C23.969,24.825 23.585,24.678 23.292,24.385 C21.581,22.674 18.750,22.618 17.109,24.260 C16.523,24.846 15.574,24.846 14.988,24.260 C14.402,23.674 14.402,22.724 14.988,22.139 C17.779,19.347 22.555,19.403 25.413,22.264 C25.999,22.849 25.999,23.800 25.413,24.385 C25.120,24.678 24.736,24.825 24.353,24.825 Z" id="path-1" class="cls-3" fill-rule="evenodd"/>
    <path d="M47.699,24.825 C47.315,24.825 46.932,24.678 46.639,24.385 C44.928,22.675 42.098,22.618 40.457,24.260 C39.871,24.846 38.922,24.846 38.336,24.260 C37.750,23.674 37.750,22.724 38.336,22.139 C41.128,19.346 45.902,19.405 48.760,22.264 C49.346,22.849 49.346,23.800 48.760,24.385 C48.467,24.678 48.083,24.825 47.699,24.825 Z" id="path-2" class="cls-3" fill-rule="evenodd"/>
    <path d="M35.888,51.154 C35.183,51.154 34.555,50.655 34.417,49.937 C34.261,49.123 34.793,48.336 35.606,48.180 C36.472,48.014 37.032,47.727 37.144,47.393 C37.403,46.622 36.371,44.889 35.558,43.985 C35.269,43.665 35.133,43.236 35.183,42.809 C35.232,42.381 35.464,41.995 35.817,41.749 C37.606,40.506 37.994,39.655 37.941,39.348 C37.840,38.757 36.424,38.011 35.494,37.756 C34.695,37.538 34.225,36.712 34.442,35.913 C34.661,35.114 35.489,34.643 36.285,34.862 C36.707,34.977 40.423,36.070 40.898,38.840 C41.151,40.312 40.436,41.792 38.771,43.250 C39.633,44.532 40.603,46.518 39.988,48.349 C39.653,49.346 38.720,50.637 36.173,51.127 C36.077,51.145 35.981,51.154 35.888,51.154 Z" id="path-3" class="cls-3" fill-rule="evenodd"/>
    <path d="M31.160,62.321 C13.985,62.321 0.013,48.345 0.013,31.166 C0.013,13.988 13.985,0.012 31.160,0.012 C48.334,0.012 62.307,13.988 62.307,31.166 C62.307,48.345 48.334,62.321 31.160,62.321 ZM31.160,3.012 C15.640,3.012 3.013,15.642 3.013,31.166 C3.013,46.690 15.640,59.320 31.160,59.320 C46.681,59.320 59.307,46.690 59.307,31.166 C59.307,15.642 46.681,3.012 31.160,3.012 Z" id="path-4" class="cls-3" fill-rule="evenodd"/>
  </g>
</svg>
