<svg xmlns="http://www.w3.org/2000/svg" xmlns:xlink="http://www.w3.org/1999/xlink" preserveAspectRatio="xMidYMid" width="63" height="64" viewBox="0 0 63 64">
  <defs>
    <style>

      .cls-3 {
        fill: #000000;
      }
    </style>
  </defs>
  <g id="group-13svg">
    <path d="M44.974,23.885 C44.974,26.072 43.201,27.845 41.014,27.845 C38.828,27.845 37.055,26.072 37.055,23.885 C37.055,21.698 38.828,19.925 41.014,19.925 C43.201,19.925 44.974,21.698 44.974,23.885 Z" id="path-1" class="cls-3" fill-rule="evenodd"/>
    <path d="M42.416,33.091 C38.633,33.091 35.555,30.012 35.555,26.228 C35.555,22.444 38.633,19.365 42.416,19.365 C46.199,19.365 49.277,22.444 49.277,26.228 C49.277,30.012 46.199,33.091 42.416,33.091 ZM42.416,22.366 C40.287,22.366 38.555,24.099 38.555,26.228 C38.555,28.358 40.287,30.090 42.416,30.090 C44.545,30.090 46.277,28.358 46.277,26.228 C46.277,24.099 44.545,22.366 42.416,22.366 Z" id="path-2" class="cls-3" fill-rule="evenodd"/>
    <path d="M20.542,33.091 C16.759,33.091 13.681,30.012 13.681,26.228 C13.681,22.444 16.759,19.365 20.542,19.365 C24.325,19.365 27.403,22.444 27.403,26.228 C27.403,30.012 24.325,33.091 20.542,33.091 ZM20.542,22.366 C18.413,22.366 16.681,24.099 16.681,26.228 C16.681,28.358 18.413,30.090 20.542,30.090 C22.671,30.090 24.403,28.358 24.403,26.228 C24.403,24.099 22.671,22.366 20.542,22.366 Z" id="path-3" class="cls-3" fill-rule="evenodd"/>
    <path d="M23.099,23.885 C23.099,26.072 21.327,27.845 19.140,27.845 C16.954,27.845 15.181,26.072 15.181,23.885 C15.181,21.698 16.954,19.925 19.140,19.925 C21.327,19.925 23.099,21.698 23.099,23.885 Z" id="path-4" class="cls-3" fill-rule="evenodd"/>
    <path d="M31.582,63.200 C14.164,63.200 -0.007,49.026 -0.007,31.603 C-0.007,14.180 14.164,0.006 31.582,0.006 C49.001,0.006 63.172,14.180 63.172,31.603 C63.172,49.026 49.001,63.200 31.582,63.200 ZM31.582,3.007 C15.818,3.007 2.993,15.835 2.993,31.603 C2.993,47.371 15.818,60.200 31.582,60.200 C47.347,60.200 60.172,47.371 60.172,31.603 C60.172,15.835 47.347,3.007 31.582,3.007 Z" id="path-5" class="cls-3" fill-rule="evenodd"/>
    <path d="M44.948,46.854 C44.948,46.854 16.948,46.854 16.948,46.854 C16.120,46.854 15.448,46.182 15.448,45.353 C15.448,44.525 16.120,43.853 16.948,43.853 C16.948,43.853 44.948,43.853 44.948,43.853 C45.776,43.853 46.448,44.525 46.448,45.353 C46.448,46.182 45.776,46.854 44.948,46.854 Z" id="path-6" class="cls-3" fill-rule="evenodd"/>
  </g>
</svg>
