<svg xmlns="http://www.w3.org/2000/svg" xmlns:xlink="http://www.w3.org/1999/xlink" preserveAspectRatio="xMidYMid" width="63" height="64" viewBox="0 0 63 64">
  <defs>
    <style>

      .cls-3 {
        fill: #000000;
      }
    </style>
  </defs>
  <g id="group-39svg">
    <path d="M32.078,50.364 C27.816,50.364 24.325,48.742 24.122,48.646 C23.374,48.291 23.055,47.396 23.409,46.648 C23.763,45.899 24.656,45.581 25.405,45.933 C25.502,45.979 31.314,48.640 36.340,46.575 C39.118,45.435 41.203,43.017 42.539,39.392 C42.825,38.614 43.691,38.217 44.465,38.503 C45.242,38.789 45.641,39.652 45.353,40.429 C43.713,44.886 41.056,47.890 37.457,49.360 C35.649,50.099 33.801,50.364 32.078,50.364 Z" id="path-1" class="cls-3" fill-rule="evenodd"/>
    <path d="M44.349,32.188 C40.114,32.188 36.669,28.742 36.669,24.506 C36.669,20.270 40.114,16.824 44.349,16.824 C48.583,16.824 52.028,20.270 52.028,24.506 C52.028,28.742 48.583,32.188 44.349,32.188 ZM44.349,19.824 C41.768,19.824 39.669,21.924 39.669,24.506 C39.669,27.087 41.768,29.187 44.349,29.187 C46.929,29.187 49.028,27.087 49.028,24.506 C49.028,21.924 46.929,19.824 44.349,19.824 Z" id="path-2" class="cls-3" fill-rule="evenodd"/>
    <path d="M20.978,32.188 C16.742,32.188 13.297,28.742 13.297,24.506 C13.297,20.270 16.742,16.824 20.978,16.824 C25.212,16.824 28.657,20.270 28.657,24.506 C28.657,28.742 25.212,32.188 20.978,32.188 ZM20.978,19.824 C18.396,19.824 16.297,21.924 16.297,24.506 C16.297,27.087 18.396,29.187 20.978,29.187 C23.558,29.187 25.657,27.087 25.657,24.506 C25.657,21.924 23.558,19.824 20.978,19.824 Z" id="path-3" class="cls-3" fill-rule="evenodd"/>
    <path d="M47.103,24.133 C47.103,25.861 45.704,27.261 43.977,27.261 C42.249,27.261 40.849,25.861 40.849,24.133 C40.849,22.406 42.249,21.005 43.977,21.005 C45.704,21.005 47.103,22.406 47.103,24.133 Z" id="path-4" class="cls-3" fill-rule="evenodd"/>
    <path d="M23.732,24.133 C23.732,25.861 22.332,27.261 20.605,27.261 C18.878,27.261 17.477,25.861 17.477,24.133 C17.477,22.406 18.878,21.005 20.605,21.005 C22.332,21.005 23.732,22.406 23.732,24.133 Z" id="path-5" class="cls-3" fill-rule="evenodd"/>
    <path d="M31.582,63.204 C14.163,63.204 -0.008,49.029 -0.008,31.606 C-0.008,14.184 14.163,0.010 31.582,0.010 C49.000,0.010 63.171,14.184 63.171,31.606 C63.171,49.029 49.000,63.204 31.582,63.204 ZM31.582,3.010 C15.817,3.010 2.992,15.839 2.992,31.606 C2.992,47.375 15.817,60.203 31.582,60.203 C47.346,60.203 60.171,47.375 60.171,31.606 C60.171,15.839 47.346,3.010 31.582,3.010 Z" id="path-6" class="cls-3" fill-rule="evenodd"/>
  </g>
</svg>
