<svg xmlns="http://www.w3.org/2000/svg" xmlns:xlink="http://www.w3.org/1999/xlink" preserveAspectRatio="xMidYMid" width="63" height="64" viewBox="0 0 63 64">
  <defs>
    <style>

      .cls-3 {
        fill: #000000;
      }
    </style>
  </defs>
  <g id="group-40svg">
    <path d="M44.350,32.169 C40.114,32.169 36.669,28.723 36.669,24.487 C36.669,20.251 40.114,16.805 44.350,16.805 C48.584,16.805 52.029,20.251 52.029,24.487 C52.029,28.723 48.584,32.169 44.350,32.169 ZM44.350,19.806 C41.769,19.806 39.669,21.906 39.669,24.487 C39.669,27.068 41.769,29.168 44.350,29.168 C46.930,29.168 49.029,27.068 49.029,24.487 C49.029,21.906 46.930,19.806 44.350,19.806 Z" id="path-1" class="cls-3" fill-rule="evenodd"/>
    <path d="M20.978,32.169 C16.743,32.169 13.298,28.723 13.298,24.487 C13.298,20.251 16.743,16.805 20.978,16.805 C25.213,16.805 28.658,20.251 28.658,24.487 C28.658,28.723 25.213,32.169 20.978,32.169 ZM20.978,19.806 C18.397,19.806 16.298,21.906 16.298,24.487 C16.298,27.068 18.397,29.168 20.978,29.168 C23.559,29.168 25.658,27.068 25.658,24.487 C25.658,21.906 23.559,19.806 20.978,19.806 Z" id="path-2" class="cls-3" fill-rule="evenodd"/>
    <path d="M24.766,50.344 C24.593,50.344 24.418,50.314 24.247,50.251 C23.470,49.965 23.071,49.102 23.358,48.324 C24.999,43.868 27.656,40.864 31.255,39.394 C37.535,36.829 44.305,39.973 44.590,40.108 C45.338,40.463 45.657,41.357 45.303,42.106 C44.949,42.855 44.056,43.174 43.307,42.821 C43.211,42.777 37.399,40.115 32.372,42.178 C29.594,43.319 27.509,45.736 26.173,49.362 C25.950,49.968 25.376,50.344 24.766,50.344 Z" id="path-3" class="cls-3" fill-rule="evenodd"/>
    <path d="M47.104,24.115 C47.104,25.842 45.704,27.243 43.977,27.243 C42.250,27.243 40.850,25.842 40.850,24.115 C40.850,22.387 42.250,20.986 43.977,20.986 C45.704,20.986 47.104,22.387 47.104,24.115 Z" id="path-4" class="cls-3" fill-rule="evenodd"/>
    <path d="M23.733,24.115 C23.733,25.842 22.333,27.243 20.606,27.243 C18.879,27.243 17.479,25.842 17.479,24.115 C17.479,22.387 18.879,20.986 20.606,20.986 C22.333,20.986 23.733,22.387 23.733,24.115 Z" id="path-5" class="cls-3" fill-rule="evenodd"/>
    <path d="M31.582,63.185 C14.164,63.185 -0.007,49.011 -0.007,31.588 C-0.007,14.165 14.164,-0.009 31.582,-0.009 C49.001,-0.009 63.172,14.165 63.172,31.588 C63.172,49.011 49.001,63.185 31.582,63.185 ZM31.582,2.991 C15.818,2.991 2.993,15.820 2.993,31.588 C2.993,47.356 15.818,60.184 31.582,60.184 C47.347,60.184 60.172,47.356 60.172,31.588 C60.172,15.820 47.347,2.991 31.582,2.991 Z" id="path-6" class="cls-3" fill-rule="evenodd"/>
  </g>
</svg>
