<svg xmlns="http://www.w3.org/2000/svg" xmlns:xlink="http://www.w3.org/1999/xlink" preserveAspectRatio="xMidYMid" width="66" height="65" viewBox="0 0 66 65">
  <defs>
    <style>

      .cls-3 {
        fill: #000000;
      }
    </style>
  </defs>
  <g id="group-45svg">
    <path d="M23.940,21.532 C23.557,21.532 23.173,21.386 22.880,21.093 C21.152,19.366 18.293,19.309 16.636,20.967 C16.050,21.552 15.101,21.553 14.515,20.967 C13.929,20.380 13.929,19.431 14.515,18.844 C17.325,16.035 22.126,16.095 25.001,18.971 C25.587,19.557 25.587,20.507 25.001,21.093 C24.708,21.386 24.324,21.532 23.940,21.532 Z" id="path-1" class="cls-3" fill-rule="evenodd"/>
    <path d="M47.462,21.532 C47.078,21.532 46.694,21.386 46.401,21.093 C44.675,19.367 41.815,19.308 40.157,20.967 C39.571,21.553 38.622,21.553 38.036,20.967 C37.450,20.381 37.450,19.431 38.036,18.845 C40.844,16.036 45.645,16.094 48.522,18.971 C49.108,19.557 49.108,20.506 48.522,21.093 C48.229,21.386 47.846,21.532 47.462,21.532 Z" id="path-2" class="cls-3" fill-rule="evenodd"/>
    <path d="M35.561,48.058 C34.856,48.058 34.228,47.558 34.091,46.840 C33.935,46.027 34.467,45.240 35.280,45.084 C36.155,44.916 36.724,44.624 36.838,44.285 C37.099,43.512 36.057,41.756 35.235,40.836 C34.949,40.516 34.813,40.087 34.864,39.660 C34.914,39.233 35.144,38.847 35.497,38.603 C37.303,37.348 37.695,36.486 37.643,36.174 C37.541,35.575 36.131,34.829 35.164,34.559 C34.367,34.336 33.899,33.511 34.120,32.714 C34.340,31.916 35.163,31.447 35.959,31.666 C36.384,31.782 40.121,32.881 40.599,35.665 C40.853,37.146 40.132,38.635 38.452,40.103 C39.320,41.393 40.302,43.395 39.683,45.239 C39.346,46.241 38.407,47.538 35.847,48.031 C35.751,48.049 35.655,48.058 35.561,48.058 Z" id="path-3" class="cls-3" fill-rule="evenodd"/>
    <path d="M47.274,50.432 C47.240,50.433 47.221,50.432 47.194,50.430 C47.170,50.432 47.146,50.432 47.123,50.432 C45.189,50.432 40.769,44.566 40.769,42.553 C40.769,40.023 42.826,37.965 45.355,37.965 C46.107,37.965 46.717,38.320 47.194,38.702 C47.671,38.320 48.280,37.965 49.033,37.965 C51.562,37.965 53.620,40.023 53.620,42.553 C53.620,43.663 52.787,45.260 51.145,47.300 C48.640,50.412 47.718,50.432 47.274,50.432 ZM45.225,40.971 C44.410,41.037 43.768,41.722 43.768,42.553 C43.887,43.379 46.034,46.161 47.194,47.208 C48.354,46.160 50.502,43.373 50.622,42.513 C50.620,41.720 49.978,41.037 49.163,40.971 C49.032,41.062 48.823,41.260 48.689,41.386 C48.479,41.584 48.277,41.769 48.090,41.909 C47.559,42.304 46.831,42.304 46.300,41.910 C46.112,41.770 45.909,41.584 45.698,41.385 C45.564,41.260 45.355,41.062 45.225,40.971 Z" id="path-4" class="cls-3" fill-rule="evenodd"/>
    <path d="M59.597,63.980 C59.571,63.980 59.542,63.979 59.515,63.978 C59.490,63.979 59.467,63.980 59.443,63.980 C59.003,63.980 58.087,63.980 55.563,60.847 C53.922,58.808 53.089,57.211 53.089,56.100 C53.089,53.571 55.146,51.512 57.676,51.512 C58.429,51.512 59.038,51.867 59.515,52.250 C59.992,51.867 60.602,51.512 61.353,51.512 C63.883,51.512 65.940,53.571 65.940,56.100 C65.940,57.211 65.107,58.808 63.466,60.848 C60.965,63.953 60.042,63.980 59.597,63.980 ZM57.546,54.519 C56.731,54.585 56.089,55.269 56.089,56.100 C56.207,56.926 58.354,59.707 59.515,60.756 C60.675,59.707 62.822,56.921 62.942,56.061 C62.940,55.267 62.298,54.585 61.484,54.519 C61.353,54.610 61.143,54.807 61.011,54.933 C60.800,55.132 60.598,55.317 60.410,55.457 C59.877,55.853 59.147,55.851 58.618,55.456 C58.432,55.317 58.230,55.132 58.021,54.934 C57.887,54.808 57.677,54.609 57.546,54.519 Z" id="path-5" class="cls-3" fill-rule="evenodd"/>
    <path d="M30.965,61.970 C13.883,61.970 -0.014,48.070 -0.014,30.984 C-0.014,13.898 13.883,-0.002 30.965,-0.002 C48.047,-0.002 61.943,13.898 61.943,30.984 C61.943,48.070 48.047,61.970 30.965,61.970 ZM30.965,2.998 C15.537,2.998 2.986,15.553 2.986,30.984 C2.986,46.415 15.537,58.969 30.965,58.969 C46.393,58.969 58.943,46.415 58.943,30.984 C58.943,15.553 46.393,2.998 30.965,2.998 Z" id="path-6" class="cls-3" fill-rule="evenodd"/>
  </g>
</svg>
