<svg xmlns="http://www.w3.org/2000/svg" xmlns:xlink="http://www.w3.org/1999/xlink" preserveAspectRatio="xMidYMid" width="64" height="63" viewBox="0 0 64 63">
  <defs>
    <style>

      .cls-3 {
        fill: #000000;
      }
    </style>
  </defs>
  <g id="group-3svg">
    <path d="M45.641,23.321 C45.641,25.332 44.012,26.962 42.001,26.962 C39.991,26.962 38.361,25.332 38.361,23.321 C38.361,21.310 39.991,19.681 42.001,19.681 C44.012,19.681 45.641,21.310 45.641,23.321 Z" id="path-1" class="cls-3" fill-rule="evenodd"/>
    <path d="M24.712,23.321 C24.712,25.332 23.082,26.962 21.072,26.962 C19.062,26.962 17.432,25.332 17.432,23.321 C17.432,21.310 19.062,19.681 21.072,19.681 C23.082,19.681 24.712,21.310 24.712,23.321 Z" id="path-2" class="cls-3" fill-rule="evenodd"/>
    <path d="M19.202,50.532 C18.374,50.532 17.702,49.861 17.702,49.032 C17.702,42.557 22.910,37.289 29.312,37.289 C29.312,37.289 34.368,37.289 34.368,37.289 C40.770,37.289 45.978,42.528 45.978,48.967 C45.978,49.796 45.307,50.468 44.478,50.468 C43.650,50.468 42.979,49.796 42.979,48.967 C42.979,44.183 39.116,40.290 34.368,40.290 C34.368,40.290 29.312,40.290 29.312,40.290 C24.564,40.290 20.702,44.211 20.702,49.032 C20.702,49.861 20.030,50.532 19.202,50.532 Z" id="path-3" class="cls-3" fill-rule="evenodd"/>
    <path d="M31.584,63.206 C14.165,63.206 -0.006,49.031 -0.006,31.608 C-0.006,14.186 14.165,0.011 31.584,0.011 C49.002,0.011 63.173,14.186 63.173,31.608 C63.173,49.031 49.002,63.206 31.584,63.206 ZM31.584,3.012 C15.819,3.012 2.994,15.840 2.994,31.608 C2.994,47.377 15.819,60.205 31.584,60.205 C47.348,60.205 60.173,47.377 60.173,31.608 C60.173,15.840 47.348,3.012 31.584,3.012 Z" id="path-4" class="cls-3" fill-rule="evenodd"/>
  </g>
</svg>
