<svg xmlns="http://www.w3.org/2000/svg" viewBox="0 0 65.43 64.5"><defs><style>.cls-1{fill:#edc951;}</style></defs><g id="图层_2" data-name="图层 2"><g id="Layer_1" data-name="Layer 1"><circle class="cls-1" cx="35.78" cy="34.85" r="29.65"/><path d="M35,47.77h-5.4a12.06,12.06,0,0,1-12.29-12.1,1.5,1.5,0,0,1,3,0,9.1,9.1,0,0,0,9.29,9.1H35a9,9,0,0,0,9.29-8.9,1.5,1.5,0,1,1,3,0A12,12,0,0,1,35,47.77Z"/><path d="M25.3,22.81a1.45,1.45,0,0,1-1.06-.44,3.69,3.69,0,0,0-5.14-.11A1.5,1.5,0,1,1,17,20.14a6.73,6.73,0,0,1,9.38.11,1.51,1.51,0,0,1,0,2.12A1.48,1.48,0,0,1,25.3,22.81Z"/><path d="M45.7,22.81a1.47,1.47,0,0,1-1.06-.44,3.68,3.68,0,0,0-5.13-.11,1.5,1.5,0,1,1-2.13-2.12,6.73,6.73,0,0,1,9.38.11,1.49,1.49,0,0,1,0,2.12A1.45,1.45,0,0,1,45.7,22.81Z"/><path d="M31.15,62.29A31.15,31.15,0,1,1,62.29,31.15,31.18,31.18,0,0,1,31.15,62.29ZM31.15,3A28.15,28.15,0,1,0,59.29,31.15,28.18,28.18,0,0,0,31.15,3Z"/></g></g></svg>