<svg xmlns="http://www.w3.org/2000/svg" viewBox="0 0 66.38 64.5"><defs><style>.cls-1{fill:#edc951;}.cls-2{fill:#fff;}</style></defs><g id="图层_2" data-name="图层 2"><g id="Layer_1" data-name="Layer 1"><circle class="cls-1" cx="36.29" cy="34.41" r="30.09"/><path d="M32.09,50.34a20.26,20.26,0,0,1-8-1.72,1.48,1.48,0,0,1-.71-2,1.5,1.5,0,0,1,2-.72c.1.05,5.91,2.71,10.94.64,2.78-1.14,4.86-3.55,6.2-7.18a1.5,1.5,0,1,1,2.81,1c-1.64,4.46-4.3,7.46-7.89,8.93A14.16,14.16,0,0,1,32.09,50.34Z"/><circle class="cls-2" cx="49.06" cy="27.31" r="6.18"/><circle class="cls-2" cx="25.69" cy="27.31" r="6.18"/><path d="M44.36,32.17A7.68,7.68,0,1,1,52,24.49,7.68,7.68,0,0,1,44.36,32.17Zm0-12.36A4.68,4.68,0,1,0,49,24.49,4.69,4.69,0,0,0,44.36,19.81Z"/><path d="M21,32.17a7.68,7.68,0,1,1,7.68-7.68A7.68,7.68,0,0,1,21,32.17Zm0-12.36a4.68,4.68,0,1,0,4.68,4.68A4.68,4.68,0,0,0,21,19.81Z"/><circle cx="43.98" cy="24.12" r="3.13"/><circle cx="20.61" cy="24.12" r="3.13"/><path d="M31.59,63.18A31.59,31.59,0,1,1,63.18,31.59,31.62,31.62,0,0,1,31.59,63.18ZM31.59,3A28.59,28.59,0,1,0,60.18,31.59,28.63,28.63,0,0,0,31.59,3Z"/></g></g></svg>