<svg xmlns="http://www.w3.org/2000/svg" viewBox="0 0 65.44 64.5"><defs><style>.cls-1{fill:#edc951;}</style></defs><g id="图层_2" data-name="图层 2"><g id="Layer_1" data-name="Layer 1"><circle class="cls-1" cx="35.35" cy="34.41" r="30.09"/><circle cx="42.01" cy="23.3" r="3.64"/><circle cx="21.08" cy="23.3" r="3.64"/><path d="M19.21,50.51a1.5,1.5,0,0,1-1.5-1.5A11.69,11.69,0,0,1,29.32,37.27h5A11.65,11.65,0,0,1,46,48.94a1.5,1.5,0,0,1-3,0,8.65,8.65,0,0,0-8.61-8.67h-5A8.68,8.68,0,0,0,20.71,49,1.5,1.5,0,0,1,19.21,50.51Z"/><path d="M31.59,63.18A31.59,31.59,0,1,1,63.18,31.59,31.62,31.62,0,0,1,31.59,63.18ZM31.59,3A28.59,28.59,0,1,0,60.18,31.59,28.63,28.63,0,0,0,31.59,3Z"/></g></g></svg>