<svg xmlns="http://www.w3.org/2000/svg" viewBox="0 0 66.38 64.5"><defs><style>.cls-1{fill:#edc951;}.cls-2{fill:#fff;}</style></defs><g id="图层_2" data-name="图层 2"><g id="Layer_1" data-name="Layer 1"><circle class="cls-1" cx="36.29" cy="34.41" r="30.09"/><circle class="cls-2" cx="50" cy="27.31" r="6.18"/><circle class="cls-2" cx="26.63" cy="27.31" r="6.18"/><circle cx="43.98" cy="24.12" r="3.13"/><path d="M44.36,32.17A7.68,7.68,0,1,1,52,24.49,7.68,7.68,0,0,1,44.36,32.17Zm0-12.36A4.68,4.68,0,1,0,49,24.49,4.69,4.69,0,0,0,44.36,19.81Z"/><path d="M21,32.17a7.68,7.68,0,1,1,7.68-7.68A7.68,7.68,0,0,1,21,32.17Zm0-12.36a4.68,4.68,0,1,0,4.68,4.68A4.68,4.68,0,0,0,21,19.81Z"/><circle cx="20.61" cy="24.12" r="3.13"/><path d="M31.59,63.18A31.59,31.59,0,1,1,63.18,31.59,31.62,31.62,0,0,1,31.59,63.18ZM31.59,3A28.59,28.59,0,1,0,60.18,31.59,28.63,28.63,0,0,0,31.59,3Z"/><path d="M45,47.27H17a1.5,1.5,0,0,1,0-3H45a1.5,1.5,0,0,1,0,3Z"/></g></g></svg>