<svg xmlns="http://www.w3.org/2000/svg" viewBox="0 0 69.54 64.5"><defs><style>.cls-1{fill:#edc951;}.cls-2{fill:#e56a77;}</style></defs><g id="图层_2" data-name="图层 2"><g id="Layer_1" data-name="Layer 1"><circle class="cls-1" cx="36.13" cy="32.94" r="28.92"/><path class="cls-2" d="M54.13,41.49c-.69,0-1.33.86-1.84,1.24-.51-.38-1.15-1.24-1.84-1.24a3.09,3.09,0,0,0-3.09,3.09c0,1.7,4.42,6.74,4.93,6.36.51.38,4.93-4.66,4.93-6.36A3.09,3.09,0,0,0,54.13,41.49Z"/><path class="cls-2" d="M66.45,55c-.69,0-1.32.85-1.84,1.24C64.1,55.89,63.46,55,62.77,55a3.08,3.08,0,0,0-3.08,3.08c0,1.71,4.41,6.74,4.92,6.36.52.38,4.93-4.65,4.93-6.36A3.08,3.08,0,0,0,66.45,55Z"/><path d="M24,21.53a1.53,1.53,0,0,1-1.06-.44,4.61,4.61,0,0,0-3.15-1.33A4.27,4.27,0,0,0,16.65,21a1.5,1.5,0,0,1-2.12-2.12,7.18,7.18,0,0,1,5.27-2.08A7.55,7.55,0,0,1,25,19a1.51,1.51,0,0,1,0,2.12A1.53,1.53,0,0,1,24,21.53Z"/><path d="M47.48,21.53a1.49,1.49,0,0,1-1.06-.44,4.65,4.65,0,0,0-3.16-1.33A4.29,4.29,0,0,0,40.17,21a1.5,1.5,0,0,1-2.12-2.12,7.22,7.22,0,0,1,5.27-2.08A7.55,7.55,0,0,1,48.54,19a1.51,1.51,0,0,1,0,2.12A1.53,1.53,0,0,1,47.48,21.53Z"/><path d="M35.58,48.05a1.5,1.5,0,0,1-.29-3c.88-.17,1.45-.46,1.56-.8.26-.78-.78-2.53-1.6-3.45a1.5,1.5,0,0,1,.26-2.23c1.81-1.26,2.2-2.12,2.15-2.43-.1-.6-1.52-1.35-2.48-1.62A1.5,1.5,0,1,1,36,31.66c.43.12,4.17,1.22,4.64,4,.26,1.48-.46,3-2.14,4.44.86,1.29,1.85,3.29,1.23,5.13-.34,1-1.28,2.3-3.84,2.79A1.33,1.33,0,0,1,35.58,48.05Z"/><path d="M47.29,50.42h-.15c-1.94,0-6.36-5.86-6.36-7.88A4.59,4.59,0,0,1,45.37,38a2.92,2.92,0,0,1,1.84.74A2.89,2.89,0,0,1,49.05,38a4.59,4.59,0,0,1,4.58,4.58c0,1.12-.83,2.71-2.47,4.75C48.65,50.4,47.73,50.42,47.29,50.42Zm-2-9.46a1.59,1.59,0,0,0-1.46,1.58c.12.83,2.27,3.61,3.43,4.66,1.16-1.05,3.31-3.83,3.43-4.69A1.6,1.6,0,0,0,49.18,41a5.76,5.76,0,0,0-.48.42,6.51,6.51,0,0,1-.6.52,1.49,1.49,0,0,1-1.79,0c-.18-.14-.39-.32-.6-.52A4.44,4.44,0,0,0,45.24,41Z"/><path d="M59.61,64h-.15c-1.94,0-6.36-5.87-6.36-7.88a4.6,4.6,0,0,1,4.59-4.59,3,3,0,0,1,1.84.74,3,3,0,0,1,1.84-.74A4.6,4.6,0,0,1,66,56.09c0,1.11-.84,2.71-2.48,4.75C61,63.94,60.06,64,59.61,64Zm-2-9.46a1.59,1.59,0,0,0-1.46,1.58c.12.82,2.27,3.61,3.43,4.65,1.16-1,3.31-3.83,3.43-4.69a1.58,1.58,0,0,0-1.46-1.54c-.13.09-.34.29-.48.41a6.72,6.72,0,0,1-.6.53,1.52,1.52,0,0,1-1.79,0c-.18-.14-.39-.33-.6-.53A5.74,5.74,0,0,0,57.56,54.51Z"/><path d="M31,62A31,31,0,1,1,62,31,31,31,0,0,1,31,62ZM31,3A28,28,0,1,0,59,31,28,28,0,0,0,31,3Z"/></g></g></svg>