<svg xmlns="http://www.w3.org/2000/svg" viewBox="0 0 65.43 64.5"><defs><style>.cls-1{fill:#edc951;}</style></defs><g id="图层_2" data-name="图层 2"><g id="Layer_1" data-name="Layer 1"><circle class="cls-1" cx="35.78" cy="34.85" r="29.65"/><path d="M24.34,24.81a1.51,1.51,0,0,1-1.06-.44,4.55,4.55,0,0,0-3.12-1.32,4.12,4.12,0,0,0-3.06,1.19A1.5,1.5,0,1,1,15,22.12a7.15,7.15,0,0,1,5.24-2.07,7.5,7.5,0,0,1,5.18,2.2,1.49,1.49,0,0,1,0,2.12A1.51,1.51,0,0,1,24.34,24.81Z"/><path d="M47.69,24.81a1.49,1.49,0,0,1-1.06-.44,4.44,4.44,0,0,0-6.19-.13,1.49,1.49,0,0,1-2.12,0,1.51,1.51,0,0,1,0-2.12,7.48,7.48,0,0,1,10.43.13,1.51,1.51,0,0,1,0,2.12A1.53,1.53,0,0,1,47.69,24.81Z"/><path d="M35.88,51.13a1.5,1.5,0,0,1-.29-3c.87-.17,1.43-.46,1.54-.79.26-.77-.77-2.5-1.59-3.41a1.52,1.52,0,0,1-.37-1.17,1.49,1.49,0,0,1,.63-1.06c1.79-1.25,2.18-2.1,2.13-2.4-.1-.59-1.52-1.34-2.45-1.59a1.5,1.5,0,0,1,.79-2.9c.42.12,4.14,1.21,4.62,4,.25,1.47-.47,3-2.13,4.41.86,1.28,1.83,3.27,1.22,5.1-.34,1-1.27,2.28-3.82,2.77Z"/><path d="M31.15,62.29A31.15,31.15,0,1,1,62.29,31.15,31.18,31.18,0,0,1,31.15,62.29ZM31.15,3A28.15,28.15,0,1,0,59.29,31.15,28.18,28.18,0,0,0,31.15,3Z"/></g></g></svg>